PathFileType	4	(X/Y/Z)	/Users/niels/Desktop/University/Third Semester/Perception and Action/Exam/Gymnastics Motion Tracking/Code for Gym Tracking/Analyzed Data/Webcam_Backflip/id6_3_baseline_Sports2D/id6_3_baseline_Sports2D_px_person00.trc
DataRate	CameraRate	NumFrames	NumMarkers	Units	OrigDataRate	OrigDataStartFrame	OrigNumFrames
29.8125	29.8125	7	22	m	29.8125	100	160
Frame#	Time	Hip			RHip			RKnee			RAnkle			RBigToe			RSmallToe			RHeel			LHip			LKnee			LAnkle			LBigToe			LSmallToe			LHeel			Neck			Head			Nose			RShoulder			RElbow			RWrist			LShoulder			LElbow			LWrist		
		X1	Y1	Z1	X2	Y2	Z2	X3	Y3	Z3	X4	Y4	Z4	X5	Y5	Z5	X6	Y6	Z6	X7	Y7	Z7	X8	Y8	Z8	X9	Y9	Z9	X10	Y10	Z10	X11	Y11	Z11	X12	Y12	Z12	X13	Y13	Z13	X14	Y14	Z14	X15	Y15	Z15	X16	Y16	Z16	X17	Y17	Z17	X18	Y18	Z18	X19	Y19	Z19	X20	Y20	Z20	X21	Y21	Z21	X22	Y22	Z22
100	3.354297693920335	0.7401526257063662	-0.3899232977167859	0.0	0.7431399133549478	-0.3886170759525625	0.0	0.8416982268794787	-0.4237833698020569	0.0	0.8162469850776713	-0.5146883713704213	0.0	0.8521329953428127	-0.5515582281660252	0.0	0.8436625619617099	-0.5522770701225234	0.0	0.805863632065851	-0.5254638553620469	0.0	0.7351110243213314	-0.38958919407541986	0.0	0.7480300606573861	-0.5041641740076335	0.0	0.7181992303038515	-0.6013313091028685	0.0	0.7341459937212675	-0.6518386029032155	0.0	0.7314933791282946	-0.6440092838468762	0.0	0.707999811351726	-0.6081729200009306	0.0	0.7820729416516431	-0.25847963891337417	0.0	0.8430258192007366	-0.20844542133512403	0.0	0.8260995069966997	-0.2508072243051137	0.0	0.7731086573420314	-0.25876961364623197	0.0	0.8111053341573242	-0.28108001621109463	0.0	0.8595564538730571	-0.27297967523571365	0.0	0.7783196140675777	-0.2647445867717307	0.0	0.8087649377512081	-0.30988995576108375	0.0	0.8492396697737625	-0.2880221771503512	0.0
101	3.3878406708595383	0.7376777136621907	-0.3958427405773259	0.0	0.7410932060850679	-0.3948232747962812	0.0	0.8397715919701925	-0.42540533214603804	0.0	0.8135555145326483	-0.515735033172614	0.0	0.8479691812814194	-0.5548807902361386	0.0	0.8402793973143298	-0.5551850383361377	0.0	0.8023441987851302	-0.5266238623101329	0.0	0.7312998524011884	-0.395680931433677	0.0	0.7388709535666157	-0.5118643824343541	0.0	0.7070645338489677	-0.6083475712249802	0.0	0.7204079744184321	-0.6592583297648732	0.0	0.7174210801563501	-0.6513402385399644	0.0	0.6963488308553141	-0.6152004778316246	0.0	0.7754910118825619	-0.26154083528339245	0.0	0.8333037729207597	-0.21213855490406744	0.0	0.8183785488992238	-0.25314528126149977	0.0	0.7671599861849645	-0.26279338868483376	0.0	0.7994463883162063	-0.29175075185753196	0.0	0.8542907043772516	-0.2778692170230237	0.0	0.7709503975115821	-0.26740281991715875	0.0	0.7985702631676013	-0.3113457798208694	0.0	0.8362340135455811	-0.2825581249128909	0.0
102	3.421383647798742	0.7350749854351453	-0.40573118985560735	0.0	0.7384712156952762	-0.40508466360514594	0.0	0.836568454488537	-0.4325190837842402	0.0	0.8103620599380893	-0.5228174641451216	0.0	0.8427500946707807	-0.5638559406217584	0.0	0.8357866504778325	-0.5636760405221403	0.0	0.7984254638571397	-0.534032589788831	0.0	0.7274609197457007	-0.40595713903734504	0.0	0.7305112642174437	-0.5226335983817992	0.0	0.6971652865146211	-0.6180827899949147	0.0	0.7084711612578376	-0.668120765254846	0.0	0.7051433436581045	-0.6604554501048224	0.0	0.6863218883334933	-0.6252166442197017	0.0	0.767914450243917	-0.2697173073749426	0.0	0.8209791170164907	-0.2198883907749622	0.0	0.8089140517955968	-0.2593414562757141	0.0	0.7595008834015285	-0.271941831260861	0.0	0.7854066807132418	-0.3021796149929668	0.0	0.8457850365731856	-0.2823591318945713	0.0	0.7632928325418383	-0.27583820270678333	0.0	0.7874246679340522	-0.31539934299540856	0.0	0.8243635823602626	-0.27813289033606203	0.0
103	3.454926624737945	0.7319932012090106	-0.41970795135616396	0.0	0.7348680771679205	-0.41945783328054376	0.0	0.8323964401241434	-0.4452013360315575	0.0	0.8068915831212646	-0.5360611135737466	0.0	0.8367049095625744	-0.5784735984054339	0.0	0.8303980784619628	-0.5777905182590978	0.0	0.7944299574269901	-0.5477328757772841	0.0	0.7234592320759077	-0.4203795539220604	0.0	0.7228731945050711	-0.5368287947257088	0.0	0.6883002773519372	-0.630867220583737	0.0	0.6981689333511534	-0.6789724541706331	0.0	0.694509426993801	-0.6718655331187697	0.0	0.6777273461285772	-0.6385522444168187	0.0	0.7596759742806412	-0.28323718639251405	0.0	0.8070335478763447	-0.2321503286271561	0.0	0.7981520910673282	-0.2701074547955913	0.0	0.7504992094791789	-0.2864618707970037	0.0	0.7697614057387167	-0.3130820371076519	0.0	0.8339107343771007	-0.2876338008283683	0.0	0.7553458339536682	-0.2899913330993343	0.0	0.7751735431534141	-0.32230619189909854	0.0	0.812006234573914	-0.2766094395861966	0.0
104	3.4884696016771484	0.728259504937608	-0.4377687417293485	0.0	0.7301460433389974	-0.4379017593634628	0.0	0.8274387403993331	-0.46351908046534973	0.0	0.8030830286461447	-0.5553928376566465	0.0	0.8299744574950552	-0.5985467786153695	0.0	0.8243067126674312	-0.5974223070513601	0.0	0.7903769489792373	-0.5676265737485615	0.0	0.7192358048640973	-0.43874940226055453	0.0	0.7159132532089848	-0.554643653447137	0.0	0.6803073604660091	-0.6471190760989528	0.0	0.6894671592877003	-0.692459111650754	0.0	0.6853536697693005	-0.6861567444520323	0.0	0.6702822569693724	-0.6556029076077731	0.0	0.7514128973805058	-0.3017971072079707	0.0	0.7932488733573567	-0.24900230543719165	0.0	0.7871241836971709	-0.28590815916329815	0.0	0.7410281980503047	-0.3061612314537224	0.0	0.7539109133932147	-0.326643987855547	0.0	0.8194339229529586	-0.29682134789934717	0.0	0.7470827930003697	-0.3091996273804706	0.0	0.7613625944138964	-0.3327466160058892	0.0	0.7969205625591201	-0.2816624836336732	0.0
105	3.522012578616352	0.7239232858650532	-0.45979698926552687	0.0	0.724505085558184	-0.4602910637730899	0.0	0.8217595952921026	-0.4874732694625369	0.0	0.7986528636968061	-0.5804964417029784	0.0	0.8226116963732919	-0.6235457443303216	0.0	0.8176200421701808	-0.6221387155260836	0.0	0.7860067576609602	-0.5934227600102655	0.0	0.7148140389850288	-0.46084214237811577	0.0	0.7096019291604012	-0.5760363856213705	0.0	0.6730671376228115	-0.667113877893385	0.0	0.6822981142336016	-0.709023284142853	0.0	0.6773249100532182	-0.7037200485138768	0.0	0.6636662002738247	-0.676570826212884	0.0	0.7438151069417192	-0.32483794057722226	0.0	0.7815094342982934	-0.2701854252362534	0.0	0.7771385260782535	-0.3068668412175147	0.0	0.7320543337006548	-0.33057492450803644	0.0	0.7396655691617868	-0.34542807220352	0.0	0.8036326996215463	-0.3142633437192301	0.0	0.7387183315151036	-0.3326654498078676	0.0	0.7460629384393107	-0.3480102500584354	0.0	0.7788446599074472	-0.2968971554515917	0.0
106	3.555555555555555	0.7191134898127074	-0.485531228111186	0.0	0.7183229648632155	-0.4863534688352891	0.0	0.8153126889254625	-0.5168510795435949	0.0	0.7931941079627101	-0.6107570972559251	0.0	0.8145200568217068	-0.6524354632670121	0.0	0.8102670119794916	-0.6509683601849687	0.0	0.7809006589574294	-0.6245185934045293	0.0	0.7102245830055219	-0.4864289731355884	0.0	0.7038564896217936	-0.6007151140354753	0.0	0.6664426694229296	-0.6907057375428785	0.0	0.6764231378782742	-0.7285744551658757	0.0	0.6699526467317127	-0.7244226270954417	0.0	0.6575821391942284	-0.7012054297807108	0.0	0.7373598016403573	-0.35173106686428524	0.0	0.7729167268183075	-0.2952809990487924	0.0	0.769205584453125	-0.332599367854163	0.0	0.7242461984724858	-0.35901508545033417	0.0	0.7278409715837666	-0.3709483682590967	0.0	0.7865536478818363	-0.3433266487019524	0.0	0.7309899789016154	-0.3597981402500805	0.0	0.7309550824784912	-0.36987024103837474	0.0	0.7608011320097268	-0.32385667921978006	0.0
